<svg width="206" height="80" viewBox="0 0 206 80" fill="none" xmlns="http://www.w3.org/2000/svg">
<path d="M106.096 27H103.472V17.928H100.352V15.912H109.328L109.072 17.928H106.096V27ZM113.242 19.352C113.956 18.5947 114.788 18.216 115.738 18.216C116.484 18.216 117.06 18.44 117.466 18.888C117.871 19.3253 118.074 19.9493 118.074 20.76V27H115.546V21.464C115.546 20.952 115.487 20.5947 115.37 20.392C115.252 20.1893 115.039 20.088 114.73 20.088C114.474 20.088 114.223 20.1787 113.978 20.36C113.743 20.5307 113.498 20.7867 113.242 21.128V27H110.714V15.128L113.242 14.872V19.352ZM122.5 23.496C122.66 24.7867 123.342 25.432 124.548 25.432C125.273 25.432 125.998 25.1973 126.724 24.728L127.732 26.104C127.316 26.4667 126.82 26.7547 126.244 26.968C125.668 27.1707 125.033 27.272 124.34 27.272C123.39 27.272 122.585 27.0853 121.924 26.712C121.262 26.328 120.761 25.8 120.42 25.128C120.089 24.4453 119.924 23.656 119.924 22.76C119.924 21.9067 120.084 21.1387 120.404 20.456C120.734 19.7627 121.209 19.2187 121.828 18.824C122.457 18.4187 123.204 18.216 124.068 18.216C124.878 18.216 125.582 18.392 126.18 18.744C126.777 19.0853 127.236 19.5867 127.556 20.248C127.886 20.8987 128.052 21.6773 128.052 22.584C128.052 22.936 128.036 23.24 128.003 23.496H122.5ZM124.068 19.912C123.609 19.912 123.241 20.0827 122.964 20.424C122.686 20.7547 122.521 21.2667 122.468 21.96H125.588C125.566 20.5947 125.06 19.912 124.068 19.912ZM147.559 21.4C147.559 25.1333 145.772 27 142.199 27H139.207V15.912H142.007C143.682 15.912 145.026 16.3067 146.039 17.096C147.052 17.8747 147.559 19.3093 147.559 21.4ZM144.855 21.4C144.855 20.024 144.642 19.0853 144.215 18.584C143.788 18.072 143.18 17.816 142.391 17.816H141.831V25.096H142.391C143.191 25.096 143.799 24.824 144.215 24.28C144.642 23.7253 144.855 22.7653 144.855 21.4ZM152.769 18.216C154.059 18.216 155.067 18.6267 155.793 19.448C156.529 20.2587 156.897 21.352 156.897 22.728C156.897 24.1573 156.534 25.272 155.809 26.072C155.083 26.872 154.07 27.272 152.769 27.272C151.467 27.272 150.454 26.8773 149.729 26.088C149.003 25.288 148.641 24.1733 148.641 22.744C148.641 21.8373 148.801 21.048 149.121 20.376C149.451 19.6933 149.926 19.1653 150.545 18.792C151.174 18.408 151.915 18.216 152.769 18.216ZM152.769 20.088C152.246 20.088 151.862 20.3013 151.617 20.728C151.371 21.144 151.249 21.816 151.249 22.744C151.249 23.6827 151.371 24.3653 151.617 24.792C151.862 25.208 152.246 25.416 152.769 25.416C153.291 25.416 153.675 25.2027 153.921 24.776C154.166 24.3493 154.289 23.6667 154.289 22.728C154.289 21.8107 154.166 21.144 153.921 20.728C153.675 20.3013 153.291 20.088 152.769 20.088ZM166.331 26.504C165.531 27.016 164.603 27.272 163.547 27.272C162.459 27.272 161.637 26.9947 161.083 26.44C160.539 25.8853 160.267 25.1067 160.267 24.104V20.248H158.491V18.504H160.267V16.664L162.795 16.36V18.504H165.531L165.275 20.248H162.795V24.104C162.795 24.52 162.891 24.8187 163.083 25C163.275 25.1813 163.584 25.272 164.011 25.272C164.544 25.272 165.04 25.144 165.499 24.888L166.331 26.504ZM109.216 38.528C109.216 39.776 108.821 40.72 108.032 41.36C107.253 41.9893 106.187 42.304 104.832 42.304H103.616V46H100.992V34.912H104.48C106.016 34.912 107.189 35.216 108 35.824C108.811 36.4213 109.216 37.3227 109.216 38.528ZM106.528 38.528C106.528 37.3653 105.861 36.784 104.528 36.784H103.616V40.416H104.656C105.253 40.416 105.712 40.2613 106.032 39.952C106.363 39.6427 106.528 39.168 106.528 38.528ZM117.194 37.248C117.706 37.248 118.175 37.3333 118.602 37.504L118.138 41.056H116.538V39.488C116.068 39.5733 115.652 39.8293 115.29 40.256C114.927 40.6827 114.644 41.2213 114.442 41.872V44.304H116.122V46H110.794V44.304H111.914V39.184H110.794V37.504H113.85L114.298 39.408C114.607 38.6827 114.996 38.144 115.466 37.792C115.935 37.4293 116.511 37.248 117.194 37.248ZM123.988 37.216C125.278 37.216 126.286 37.6267 127.012 38.448C127.748 39.2587 128.116 40.352 128.116 41.728C128.116 43.1573 127.753 44.272 127.028 45.072C126.302 45.872 125.289 46.272 123.988 46.272C122.686 46.272 121.673 45.8773 120.948 45.088C120.222 44.288 119.86 43.1733 119.86 41.744C119.86 40.8373 120.02 40.048 120.34 39.376C120.67 38.6933 121.145 38.1653 121.764 37.792C122.393 37.408 123.134 37.216 123.988 37.216ZM123.988 39.088C123.465 39.088 123.081 39.3013 122.836 39.728C122.59 40.144 122.468 40.816 122.468 41.744C122.468 42.6827 122.59 43.3653 122.836 43.792C123.081 44.208 123.465 44.416 123.988 44.416C124.51 44.416 124.894 44.2027 125.14 43.776C125.385 43.3493 125.508 42.6667 125.508 41.728C125.508 40.8107 125.385 40.144 125.14 39.728C124.894 39.3013 124.51 39.088 123.988 39.088ZM138.029 38C137.475 38.224 136.659 38.336 135.581 38.336C136.136 38.5813 136.547 38.8747 136.813 39.216C137.091 39.5573 137.229 39.9947 137.229 40.528C137.229 41.072 137.08 41.5627 136.781 42C136.483 42.4267 136.061 42.7627 135.517 43.008C134.973 43.2533 134.344 43.376 133.629 43.376C133.277 43.376 132.947 43.344 132.637 43.28C132.552 43.3227 132.483 43.392 132.429 43.488C132.387 43.5733 132.365 43.664 132.365 43.76C132.365 43.92 132.424 44.048 132.541 44.144C132.669 44.2293 132.92 44.272 133.293 44.272H134.701C135.341 44.272 135.907 44.3787 136.397 44.592C136.888 44.8053 137.267 45.0987 137.533 45.472C137.8 45.8453 137.933 46.2667 137.933 46.736C137.933 47.6213 137.544 48.3093 136.765 48.8C135.997 49.3013 134.872 49.552 133.389 49.552C132.333 49.552 131.501 49.44 130.893 49.216C130.296 49.0027 129.875 48.6987 129.629 48.304C129.395 47.9093 129.277 47.4133 129.277 46.816H131.517C131.517 47.0827 131.565 47.2907 131.661 47.44C131.768 47.5893 131.96 47.7013 132.237 47.776C132.515 47.8507 132.92 47.888 133.453 47.888C134.2 47.888 134.712 47.8027 134.989 47.632C135.277 47.4613 135.421 47.2213 135.421 46.912C135.421 46.656 135.315 46.448 135.101 46.288C134.899 46.1387 134.595 46.064 134.189 46.064H132.845C131.971 46.064 131.315 45.9093 130.877 45.6C130.44 45.28 130.221 44.8747 130.221 44.384C130.221 44.064 130.301 43.7653 130.461 43.488C130.632 43.2 130.867 42.96 131.165 42.768C130.632 42.48 130.248 42.144 130.013 41.76C129.779 41.3653 129.661 40.8907 129.661 40.336C129.661 39.7067 129.821 39.1573 130.141 38.688C130.461 38.2187 130.909 37.8613 131.485 37.616C132.061 37.36 132.717 37.232 133.453 37.232C134.307 37.2533 135.032 37.1733 135.629 36.992C136.227 36.8 136.835 36.5173 137.453 36.144L138.029 38ZM133.517 38.88C133.112 38.88 132.792 39.008 132.557 39.264C132.333 39.52 132.221 39.8667 132.221 40.304C132.221 40.7627 132.339 41.12 132.573 41.376C132.808 41.632 133.123 41.76 133.517 41.76C133.933 41.76 134.253 41.6373 134.477 41.392C134.701 41.136 134.813 40.7627 134.813 40.272C134.813 39.344 134.381 38.88 133.517 38.88ZM145.975 37.248C146.487 37.248 146.956 37.3333 147.383 37.504L146.919 41.056H145.319V39.488C144.85 39.5733 144.434 39.8293 144.071 40.256C143.708 40.6827 143.426 41.2213 143.223 41.872V44.304H144.903V46H139.575V44.304H140.695V39.184H139.575V37.504H142.631L143.079 39.408C143.388 38.6827 143.778 38.144 144.247 37.792C144.716 37.4293 145.292 37.248 145.975 37.248ZM156.241 43.552C156.241 43.8613 156.283 44.0907 156.369 44.24C156.454 44.3893 156.598 44.5013 156.801 44.576L156.273 46.24C155.761 46.1867 155.334 46.0747 154.993 45.904C154.651 45.7227 154.385 45.4613 154.193 45.12C153.873 45.4933 153.467 45.7813 152.977 45.984C152.486 46.176 151.963 46.272 151.409 46.272C150.534 46.272 149.835 46.0267 149.313 45.536C148.79 45.0347 148.529 44.3893 148.529 43.6C148.529 42.6827 148.891 41.9733 149.617 41.472C150.342 40.96 151.361 40.704 152.673 40.704H153.809V40.4C153.809 39.5253 153.249 39.088 152.129 39.088C151.841 39.088 151.478 39.1307 151.041 39.216C150.614 39.2907 150.198 39.3973 149.793 39.536L149.217 37.856C149.761 37.6533 150.326 37.4987 150.913 37.392C151.51 37.2747 152.049 37.216 152.529 37.216C155.003 37.216 156.241 38.2187 156.241 40.224V43.552ZM152.273 44.464C152.561 44.464 152.849 44.384 153.137 44.224C153.435 44.0533 153.659 43.824 153.809 43.536V42.144H153.185C151.819 42.144 151.137 42.5707 151.137 43.424C151.137 43.7547 151.233 44.0107 151.425 44.192C151.627 44.3733 151.91 44.464 152.273 44.464ZM164.971 37.216C165.579 37.216 166.021 37.4187 166.299 37.824C166.587 38.2187 166.731 38.848 166.731 39.712V46H164.571V40C164.571 39.6907 164.539 39.4773 164.475 39.36C164.421 39.2427 164.315 39.184 164.155 39.184C163.856 39.184 163.563 39.3707 163.275 39.744V46H161.483V40C161.483 39.6907 161.451 39.4773 161.387 39.36C161.333 39.2427 161.227 39.184 161.067 39.184C160.768 39.184 160.475 39.3707 160.187 39.744V46H157.995V37.504H159.835L160.011 38.32C160.288 37.936 160.56 37.6587 160.827 37.488C161.104 37.3067 161.424 37.216 161.786 37.216C162.117 37.216 162.395 37.3013 162.619 37.472C162.843 37.632 163.003 37.8827 163.099 38.224C163.675 37.552 164.299 37.216 164.971 37.216ZM174.564 37.216C175.172 37.216 175.615 37.4187 175.892 37.824C176.18 38.2187 176.324 38.848 176.324 39.712V46H174.164V40C174.164 39.6907 174.132 39.4773 174.068 39.36C174.015 39.2427 173.908 39.184 173.748 39.184C173.45 39.184 173.156 39.3707 172.868 39.744V46H171.076V40C171.076 39.6907 171.044 39.4773 170.98 39.36C170.927 39.2427 170.82 39.184 170.66 39.184C170.362 39.184 170.068 39.3707 169.78 39.744V46H167.588V37.504H169.428L169.604 38.32C169.882 37.936 170.154 37.6587 170.42 37.488C170.698 37.3067 171.018 37.216 171.38 37.216C171.711 37.216 171.988 37.3013 172.212 37.472C172.436 37.632 172.596 37.8827 172.692 38.224C173.268 37.552 173.892 37.216 174.564 37.216ZM181.534 33.056C181.971 33.056 182.329 33.1947 182.606 33.472C182.883 33.7387 183.022 34.0747 183.022 34.48C183.022 34.896 182.883 35.2373 182.606 35.504C182.329 35.7707 181.971 35.904 181.534 35.904C181.097 35.904 180.734 35.7707 180.446 35.504C180.169 35.2267 180.03 34.8853 180.03 34.48C180.03 34.0747 180.169 33.7387 180.446 33.472C180.734 33.1947 181.097 33.056 181.534 33.056ZM183.054 44.272H185.23V46H178.126V44.272H180.526V39.232H178.206V37.504H183.054V44.272ZM187.464 37.504H189.672L189.848 38.48C190.232 38.0533 190.632 37.7387 191.048 37.536C191.474 37.3227 191.954 37.216 192.488 37.216C193.224 37.216 193.794 37.44 194.2 37.888C194.616 38.336 194.824 38.96 194.824 39.76V46H192.296V40.496C192.296 39.9627 192.237 39.5947 192.12 39.392C192.002 39.1893 191.789 39.088 191.48 39.088C191.224 39.088 190.973 39.1733 190.728 39.344C190.493 39.504 190.248 39.744 189.992 40.064V46H187.464V37.504ZM205.186 38C204.631 38.224 203.815 38.336 202.738 38.336C203.292 38.5813 203.703 38.8747 203.97 39.216C204.247 39.5573 204.385 39.9947 204.385 40.528C204.385 41.072 204.236 41.5627 203.938 42C203.639 42.4267 203.218 42.7627 202.674 43.008C202.13 43.2533 201.5 43.376 200.786 43.376C200.434 43.376 200.103 43.344 199.794 43.28C199.708 43.3227 199.639 43.392 199.586 43.488C199.543 43.5733 199.522 43.664 199.522 43.76C199.522 43.92 199.58 44.048 199.698 44.144C199.826 44.2293 200.076 44.272 200.45 44.272H201.858C202.498 44.272 203.063 44.3787 203.554 44.592C204.044 44.8053 204.423 45.0987 204.69 45.472C204.956 45.8453 205.09 46.2667 205.09 46.736C205.09 47.6213 204.7 48.3093 203.922 48.8C203.154 49.3013 202.028 49.552 200.546 49.552C199.49 49.552 198.658 49.44 198.049 49.216C197.452 49.0027 197.031 48.6987 196.786 48.304C196.551 47.9093 196.434 47.4133 196.434 46.816H198.674C198.674 47.0827 198.722 47.2907 198.818 47.44C198.924 47.5893 199.116 47.7013 199.394 47.776C199.671 47.8507 200.076 47.888 200.61 47.888C201.356 47.888 201.868 47.8027 202.146 47.632C202.434 47.4613 202.578 47.2213 202.578 46.912C202.578 46.656 202.471 46.448 202.258 46.288C202.055 46.1387 201.751 46.064 201.346 46.064H200.002C199.127 46.064 198.471 45.9093 198.034 45.6C197.596 45.28 197.378 44.8747 197.378 44.384C197.378 44.064 197.458 43.7653 197.618 43.488C197.788 43.2 198.023 42.96 198.322 42.768C197.788 42.48 197.404 42.144 197.17 41.76C196.935 41.3653 196.818 40.8907 196.818 40.336C196.818 39.7067 196.978 39.1573 197.298 38.688C197.618 38.2187 198.066 37.8613 198.642 37.616C199.218 37.36 199.874 37.232 200.61 37.232C201.463 37.2533 202.188 37.1733 202.786 36.992C203.383 36.8 203.991 36.5173 204.61 36.144L205.186 38ZM200.674 38.88C200.268 38.88 199.948 39.008 199.714 39.264C199.49 39.52 199.378 39.8667 199.378 40.304C199.378 40.7627 199.495 41.12 199.73 41.376C199.964 41.632 200.279 41.76 200.674 41.76C201.09 41.76 201.41 41.6373 201.634 41.392C201.858 41.136 201.97 40.7627 201.97 40.272C201.97 39.344 201.538 38.88 200.674 38.88ZM101.488 53.912H104.112V62.92H108.912L108.656 65H101.488V53.912ZM117.866 62.552C117.866 62.8613 117.908 63.0907 117.994 63.24C118.079 63.3893 118.223 63.5013 118.426 63.576L117.898 65.24C117.386 65.1867 116.959 65.0747 116.618 64.904C116.276 64.7227 116.01 64.4613 115.818 64.12C115.498 64.4933 115.092 64.7813 114.602 64.984C114.111 65.176 113.588 65.272 113.034 65.272C112.159 65.272 111.46 65.0267 110.938 64.536C110.415 64.0347 110.154 63.3893 110.154 62.6C110.154 61.6827 110.516 60.9733 111.242 60.472C111.967 59.96 112.986 59.704 114.298 59.704H115.434V59.4C115.434 58.5253 114.874 58.088 113.754 58.088C113.466 58.088 113.103 58.1307 112.666 58.216C112.239 58.2907 111.823 58.3973 111.418 58.536L110.842 56.856C111.386 56.6533 111.951 56.4987 112.538 56.392C113.135 56.2747 113.674 56.216 114.154 56.216C116.628 56.216 117.866 57.2187 117.866 59.224V62.552ZM113.898 63.464C114.186 63.464 114.474 63.384 114.762 63.224C115.06 63.0533 115.284 62.824 115.434 62.536V61.144H114.81C113.444 61.144 112.762 61.5707 112.762 62.424C112.762 62.7547 112.858 63.0107 113.05 63.192C113.252 63.3733 113.535 63.464 113.898 63.464ZM120.308 56.504H122.516L122.692 57.48C123.076 57.0533 123.476 56.7387 123.891 56.536C124.318 56.3227 124.798 56.216 125.332 56.216C126.068 56.216 126.638 56.44 127.044 56.888C127.46 57.336 127.668 57.96 127.668 58.76V65H125.14V59.496C125.14 58.9627 125.081 58.5947 124.964 58.392C124.846 58.1893 124.633 58.088 124.324 58.088C124.068 58.088 123.817 58.1733 123.572 58.344C123.337 58.504 123.092 58.744 122.836 59.064V65H120.308V56.504ZM138.029 57C137.475 57.224 136.659 57.336 135.581 57.336C136.136 57.5813 136.547 57.8747 136.813 58.216C137.091 58.5573 137.229 58.9947 137.229 59.528C137.229 60.072 137.08 60.5627 136.781 61C136.483 61.4267 136.061 61.7627 135.517 62.008C134.973 62.2533 134.344 62.376 133.629 62.376C133.277 62.376 132.947 62.344 132.637 62.28C132.552 62.3227 132.483 62.392 132.429 62.488C132.387 62.5733 132.365 62.664 132.365 62.76C132.365 62.92 132.424 63.048 132.541 63.144C132.669 63.2293 132.92 63.272 133.293 63.272H134.701C135.341 63.272 135.907 63.3787 136.397 63.592C136.888 63.8053 137.267 64.0987 137.533 64.472C137.8 64.8453 137.933 65.2667 137.933 65.736C137.933 66.6213 137.544 67.3093 136.765 67.8C135.997 68.3013 134.872 68.552 133.389 68.552C132.333 68.552 131.501 68.44 130.893 68.216C130.296 68.0027 129.875 67.6987 129.629 67.304C129.395 66.9093 129.277 66.4133 129.277 65.816H131.517C131.517 66.0827 131.565 66.2907 131.661 66.44C131.768 66.5893 131.96 66.7013 132.237 66.776C132.515 66.8507 132.92 66.888 133.453 66.888C134.2 66.888 134.712 66.8027 134.989 66.632C135.277 66.4613 135.421 66.2213 135.421 65.912C135.421 65.656 135.315 65.448 135.101 65.288C134.899 65.1387 134.595 65.064 134.189 65.064H132.845C131.971 65.064 131.315 64.9093 130.877 64.6C130.44 64.28 130.221 63.8747 130.221 63.384C130.221 63.064 130.301 62.7653 130.461 62.488C130.632 62.2 130.867 61.96 131.165 61.768C130.632 61.48 130.248 61.144 130.013 60.76C129.779 60.3653 129.661 59.8907 129.661 59.336C129.661 58.7067 129.821 58.1573 130.141 57.688C130.461 57.2187 130.909 56.8613 131.485 56.616C132.061 56.36 132.717 56.232 133.453 56.232C134.307 56.2533 135.032 56.1733 135.629 55.992C136.227 55.8 136.835 55.5173 137.453 55.144L138.029 57ZM133.517 57.88C133.112 57.88 132.792 58.008 132.557 58.264C132.333 58.52 132.221 58.8667 132.221 59.304C132.221 59.7627 132.339 60.12 132.573 60.376C132.808 60.632 133.123 60.76 133.517 60.76C133.933 60.76 134.253 60.6373 134.477 60.392C134.701 60.136 134.813 59.7627 134.813 59.272C134.813 58.344 134.381 57.88 133.517 57.88ZM142.023 62.312C142.023 62.7067 142.092 62.9893 142.231 63.16C142.38 63.32 142.599 63.4 142.887 63.4C143.143 63.4 143.404 63.32 143.671 63.16C143.938 62.9893 144.156 62.76 144.327 62.472V56.504H146.855V65H144.647L144.535 64.008C144.258 64.4133 143.884 64.728 143.415 64.952C142.946 65.1653 142.45 65.272 141.927 65.272C141.127 65.272 140.519 65.0427 140.103 64.584C139.698 64.1147 139.495 63.464 139.495 62.632V56.504H142.023V62.312ZM156.241 62.552C156.241 62.8613 156.283 63.0907 156.369 63.24C156.454 63.3893 156.598 63.5013 156.801 63.576L156.273 65.24C155.761 65.1867 155.334 65.0747 154.993 64.904C154.651 64.7227 154.385 64.4613 154.193 64.12C153.873 64.4933 153.467 64.7813 152.977 64.984C152.486 65.176 151.963 65.272 151.409 65.272C150.534 65.272 149.835 65.0267 149.313 64.536C148.79 64.0347 148.529 63.3893 148.529 62.6C148.529 61.6827 148.891 60.9733 149.617 60.472C150.342 59.96 151.361 59.704 152.673 59.704H153.809V59.4C153.809 58.5253 153.249 58.088 152.129 58.088C151.841 58.088 151.478 58.1307 151.041 58.216C150.614 58.2907 150.198 58.3973 149.793 58.536L149.217 56.856C149.761 56.6533 150.326 56.4987 150.913 56.392C151.51 56.2747 152.049 56.216 152.529 56.216C155.003 56.216 156.241 57.2187 156.241 59.224V62.552ZM152.273 63.464C152.561 63.464 152.849 63.384 153.137 63.224C153.435 63.0533 153.659 62.824 153.809 62.536V61.144H153.185C151.819 61.144 151.137 61.5707 151.137 62.424C151.137 62.7547 151.233 63.0107 151.425 63.192C151.627 63.3733 151.91 63.464 152.273 63.464ZM166.811 57C166.256 57.224 165.44 57.336 164.363 57.336C164.917 57.5813 165.328 57.8747 165.595 58.216C165.872 58.5573 166.01 58.9947 166.01 59.528C166.01 60.072 165.861 60.5627 165.562 61C165.264 61.4267 164.843 61.7627 164.299 62.008C163.755 62.2533 163.125 62.376 162.411 62.376C162.059 62.376 161.728 62.344 161.419 62.28C161.333 62.3227 161.264 62.392 161.211 62.488C161.168 62.5733 161.147 62.664 161.147 62.76C161.147 62.92 161.205 63.048 161.323 63.144C161.451 63.2293 161.701 63.272 162.075 63.272H163.483C164.123 63.272 164.688 63.3787 165.179 63.592C165.669 63.8053 166.048 64.0987 166.315 64.472C166.581 64.8453 166.715 65.2667 166.715 65.736C166.715 66.6213 166.325 67.3093 165.547 67.8C164.779 68.3013 163.653 68.552 162.171 68.552C161.115 68.552 160.283 68.44 159.674 68.216C159.077 68.0027 158.656 67.6987 158.411 67.304C158.176 66.9093 158.059 66.4133 158.059 65.816H160.299C160.299 66.0827 160.347 66.2907 160.443 66.44C160.549 66.5893 160.741 66.7013 161.019 66.776C161.296 66.8507 161.701 66.888 162.235 66.888C162.981 66.888 163.493 66.8027 163.771 66.632C164.059 66.4613 164.203 66.2213 164.203 65.912C164.203 65.656 164.096 65.448 163.883 65.288C163.68 65.1387 163.376 65.064 162.971 65.064H161.627C160.752 65.064 160.096 64.9093 159.659 64.6C159.221 64.28 159.003 63.8747 159.003 63.384C159.003 63.064 159.083 62.7653 159.243 62.488C159.413 62.2 159.648 61.96 159.947 61.768C159.413 61.48 159.029 61.144 158.795 60.76C158.56 60.3653 158.443 59.8907 158.443 59.336C158.443 58.7067 158.603 58.1573 158.923 57.688C159.243 57.2187 159.691 56.8613 160.267 56.616C160.843 56.36 161.499 56.232 162.235 56.232C163.088 56.2533 163.813 56.1733 164.411 55.992C165.008 55.8 165.616 55.5173 166.235 55.144L166.811 57ZM162.299 57.88C161.893 57.88 161.573 58.008 161.339 58.264C161.115 58.52 161.003 58.8667 161.003 59.304C161.003 59.7627 161.12 60.12 161.355 60.376C161.589 60.632 161.904 60.76 162.299 60.76C162.715 60.76 163.035 60.6373 163.259 60.392C163.483 60.136 163.595 59.7627 163.595 59.272C163.595 58.344 163.163 57.88 162.299 57.88ZM170.468 61.496C170.628 62.7867 171.311 63.432 172.516 63.432C173.242 63.432 173.967 63.1973 174.692 62.728L175.7 64.104C175.284 64.4667 174.788 64.7547 174.212 64.968C173.636 65.1707 173.002 65.272 172.308 65.272C171.359 65.272 170.554 65.0853 169.892 64.712C169.231 64.328 168.73 63.8 168.388 63.128C168.058 62.4453 167.892 61.656 167.892 60.76C167.892 59.9067 168.052 59.1387 168.372 58.456C168.703 57.7627 169.178 57.2187 169.796 56.824C170.426 56.4187 171.172 56.216 172.036 56.216C172.847 56.216 173.551 56.392 174.148 56.744C174.746 57.0853 175.204 57.5867 175.524 58.248C175.855 58.8987 176.02 59.6773 176.02 60.584C176.02 60.936 176.004 61.24 175.972 61.496H170.468ZM172.036 57.912C171.578 57.912 171.21 58.0827 170.932 58.424C170.655 58.7547 170.49 59.2667 170.436 59.96H173.556C173.535 58.5947 173.028 57.912 172.036 57.912Z" fill="white"/>
<rect width="80" height="80" rx="40" fill="white"/>
</svg>
