<svg width="246" height="120" viewBox="0 0 246 120" fill="none" xmlns="http://www.w3.org/2000/svg">
<rect x="20" y="20" width="80" height="80" rx="40" fill="black"/>
<path d="M126.096 46.5H123.472V37.428H120.352V35.412H129.328L129.072 37.428H126.096V46.5ZM133.242 38.852C133.956 38.0947 134.788 37.716 135.738 37.716C136.484 37.716 137.06 37.94 137.466 38.388C137.871 38.8253 138.074 39.4493 138.074 40.26V46.5H135.546V40.964C135.546 40.452 135.487 40.0947 135.37 39.892C135.252 39.6893 135.039 39.588 134.73 39.588C134.474 39.588 134.223 39.6787 133.978 39.86C133.743 40.0307 133.498 40.2867 133.242 40.628V46.5H130.714V34.628L133.242 34.372V38.852ZM142.5 42.996C142.66 44.2867 143.342 44.932 144.548 44.932C145.273 44.932 145.998 44.6973 146.724 44.228L147.732 45.604C147.316 45.9667 146.82 46.2547 146.244 46.468C145.668 46.6707 145.033 46.772 144.34 46.772C143.39 46.772 142.585 46.5853 141.924 46.212C141.262 45.828 140.761 45.3 140.42 44.628C140.089 43.9453 139.924 43.156 139.924 42.26C139.924 41.4067 140.084 40.6387 140.404 39.956C140.734 39.2627 141.209 38.7187 141.828 38.324C142.457 37.9187 143.204 37.716 144.068 37.716C144.878 37.716 145.582 37.892 146.18 38.244C146.777 38.5853 147.236 39.0867 147.556 39.748C147.886 40.3987 148.052 41.1773 148.052 42.084C148.052 42.436 148.036 42.74 148.003 42.996H142.5ZM144.068 39.412C143.609 39.412 143.241 39.5827 142.964 39.924C142.686 40.2547 142.521 40.7667 142.468 41.46H145.588C145.566 40.0947 145.06 39.412 144.068 39.412ZM167.559 40.9C167.559 44.6333 165.772 46.5 162.199 46.5H159.207V35.412H162.007C163.682 35.412 165.026 35.8067 166.039 36.596C167.052 37.3747 167.559 38.8093 167.559 40.9ZM164.855 40.9C164.855 39.524 164.642 38.5853 164.215 38.084C163.788 37.572 163.18 37.316 162.391 37.316H161.831V44.596H162.391C163.191 44.596 163.799 44.324 164.215 43.78C164.642 43.2253 164.855 42.2653 164.855 40.9ZM172.769 37.716C174.059 37.716 175.067 38.1267 175.793 38.948C176.529 39.7587 176.897 40.852 176.897 42.228C176.897 43.6573 176.534 44.772 175.809 45.572C175.083 46.372 174.07 46.772 172.769 46.772C171.467 46.772 170.454 46.3773 169.729 45.588C169.003 44.788 168.641 43.6733 168.641 42.244C168.641 41.3373 168.801 40.548 169.121 39.876C169.451 39.1933 169.926 38.6653 170.545 38.292C171.174 37.908 171.915 37.716 172.769 37.716ZM172.769 39.588C172.246 39.588 171.862 39.8013 171.617 40.228C171.371 40.644 171.249 41.316 171.249 42.244C171.249 43.1827 171.371 43.8653 171.617 44.292C171.862 44.708 172.246 44.916 172.769 44.916C173.291 44.916 173.675 44.7027 173.921 44.276C174.166 43.8493 174.289 43.1667 174.289 42.228C174.289 41.3107 174.166 40.644 173.921 40.228C173.675 39.8013 173.291 39.588 172.769 39.588ZM186.331 46.004C185.531 46.516 184.603 46.772 183.547 46.772C182.459 46.772 181.637 46.4947 181.083 45.94C180.539 45.3853 180.267 44.6067 180.267 43.604V39.748H178.491V38.004H180.267V36.164L182.795 35.86V38.004H185.531L185.275 39.748H182.795V43.604C182.795 44.02 182.891 44.3187 183.083 44.5C183.275 44.6813 183.584 44.772 184.011 44.772C184.544 44.772 185.04 44.644 185.499 44.388L186.331 46.004ZM129.216 58.028C129.216 59.276 128.821 60.22 128.032 60.86C127.253 61.4893 126.187 61.804 124.832 61.804H123.616V65.5H120.992V54.412H124.48C126.016 54.412 127.189 54.716 128 55.324C128.811 55.9213 129.216 56.8227 129.216 58.028ZM126.528 58.028C126.528 56.8653 125.861 56.284 124.528 56.284H123.616V59.916H124.656C125.253 59.916 125.712 59.7613 126.032 59.452C126.363 59.1427 126.528 58.668 126.528 58.028ZM137.194 56.748C137.706 56.748 138.175 56.8333 138.602 57.004L138.138 60.556H136.538V58.988C136.068 59.0733 135.652 59.3293 135.29 59.756C134.927 60.1827 134.644 60.7213 134.442 61.372V63.804H136.122V65.5H130.794V63.804H131.914V58.684H130.794V57.004H133.85L134.298 58.908C134.607 58.1827 134.996 57.644 135.466 57.292C135.935 56.9293 136.511 56.748 137.194 56.748ZM143.988 56.716C145.278 56.716 146.286 57.1267 147.012 57.948C147.748 58.7587 148.116 59.852 148.116 61.228C148.116 62.6573 147.753 63.772 147.028 64.572C146.302 65.372 145.289 65.772 143.988 65.772C142.686 65.772 141.673 65.3773 140.948 64.588C140.222 63.788 139.86 62.6733 139.86 61.244C139.86 60.3373 140.02 59.548 140.34 58.876C140.67 58.1933 141.145 57.6653 141.764 57.292C142.393 56.908 143.134 56.716 143.988 56.716ZM143.988 58.588C143.465 58.588 143.081 58.8013 142.836 59.228C142.59 59.644 142.468 60.316 142.468 61.244C142.468 62.1827 142.59 62.8653 142.836 63.292C143.081 63.708 143.465 63.916 143.988 63.916C144.51 63.916 144.894 63.7027 145.14 63.276C145.385 62.8493 145.508 62.1667 145.508 61.228C145.508 60.3107 145.385 59.644 145.14 59.228C144.894 58.8013 144.51 58.588 143.988 58.588ZM158.029 57.5C157.475 57.724 156.659 57.836 155.581 57.836C156.136 58.0813 156.547 58.3747 156.813 58.716C157.091 59.0573 157.229 59.4947 157.229 60.028C157.229 60.572 157.08 61.0627 156.781 61.5C156.483 61.9267 156.061 62.2627 155.517 62.508C154.973 62.7533 154.344 62.876 153.629 62.876C153.277 62.876 152.947 62.844 152.637 62.78C152.552 62.8227 152.483 62.892 152.429 62.988C152.387 63.0733 152.365 63.164 152.365 63.26C152.365 63.42 152.424 63.548 152.541 63.644C152.669 63.7293 152.92 63.772 153.293 63.772H154.701C155.341 63.772 155.907 63.8787 156.397 64.092C156.888 64.3053 157.267 64.5987 157.533 64.972C157.8 65.3453 157.933 65.7667 157.933 66.236C157.933 67.1213 157.544 67.8093 156.765 68.3C155.997 68.8013 154.872 69.052 153.389 69.052C152.333 69.052 151.501 68.94 150.893 68.716C150.296 68.5027 149.875 68.1987 149.629 67.804C149.395 67.4093 149.277 66.9133 149.277 66.316H151.517C151.517 66.5827 151.565 66.7907 151.661 66.94C151.768 67.0893 151.96 67.2013 152.237 67.276C152.515 67.3507 152.92 67.388 153.453 67.388C154.2 67.388 154.712 67.3027 154.989 67.132C155.277 66.9613 155.421 66.7213 155.421 66.412C155.421 66.156 155.315 65.948 155.101 65.788C154.899 65.6387 154.595 65.564 154.189 65.564H152.845C151.971 65.564 151.315 65.4093 150.877 65.1C150.44 64.78 150.221 64.3747 150.221 63.884C150.221 63.564 150.301 63.2653 150.461 62.988C150.632 62.7 150.867 62.46 151.165 62.268C150.632 61.98 150.248 61.644 150.013 61.26C149.779 60.8653 149.661 60.3907 149.661 59.836C149.661 59.2067 149.821 58.6573 150.141 58.188C150.461 57.7187 150.909 57.3613 151.485 57.116C152.061 56.86 152.717 56.732 153.453 56.732C154.307 56.7533 155.032 56.6733 155.629 56.492C156.227 56.3 156.835 56.0173 157.453 55.644L158.029 57.5ZM153.517 58.38C153.112 58.38 152.792 58.508 152.557 58.764C152.333 59.02 152.221 59.3667 152.221 59.804C152.221 60.2627 152.339 60.62 152.573 60.876C152.808 61.132 153.123 61.26 153.517 61.26C153.933 61.26 154.253 61.1373 154.477 60.892C154.701 60.636 154.813 60.2627 154.813 59.772C154.813 58.844 154.381 58.38 153.517 58.38ZM165.975 56.748C166.487 56.748 166.956 56.8333 167.383 57.004L166.919 60.556H165.319V58.988C164.85 59.0733 164.434 59.3293 164.071 59.756C163.708 60.1827 163.426 60.7213 163.223 61.372V63.804H164.903V65.5H159.575V63.804H160.695V58.684H159.575V57.004H162.631L163.079 58.908C163.388 58.1827 163.778 57.644 164.247 57.292C164.716 56.9293 165.292 56.748 165.975 56.748ZM176.241 63.052C176.241 63.3613 176.283 63.5907 176.369 63.74C176.454 63.8893 176.598 64.0013 176.801 64.076L176.273 65.74C175.761 65.6867 175.334 65.5747 174.993 65.404C174.651 65.2227 174.385 64.9613 174.193 64.62C173.873 64.9933 173.467 65.2813 172.977 65.484C172.486 65.676 171.963 65.772 171.409 65.772C170.534 65.772 169.835 65.5267 169.313 65.036C168.79 64.5347 168.529 63.8893 168.529 63.1C168.529 62.1827 168.891 61.4733 169.617 60.972C170.342 60.46 171.361 60.204 172.673 60.204H173.809V59.9C173.809 59.0253 173.249 58.588 172.129 58.588C171.841 58.588 171.478 58.6307 171.041 58.716C170.614 58.7907 170.198 58.8973 169.793 59.036L169.217 57.356C169.761 57.1533 170.326 56.9987 170.913 56.892C171.51 56.7747 172.049 56.716 172.529 56.716C175.003 56.716 176.241 57.7187 176.241 59.724V63.052ZM172.273 63.964C172.561 63.964 172.849 63.884 173.137 63.724C173.435 63.5533 173.659 63.324 173.809 63.036V61.644H173.185C171.819 61.644 171.137 62.0707 171.137 62.924C171.137 63.2547 171.233 63.5107 171.425 63.692C171.627 63.8733 171.91 63.964 172.273 63.964ZM184.971 56.716C185.579 56.716 186.021 56.9187 186.299 57.324C186.587 57.7187 186.731 58.348 186.731 59.212V65.5H184.571V59.5C184.571 59.1907 184.539 58.9773 184.475 58.86C184.421 58.7427 184.315 58.684 184.155 58.684C183.856 58.684 183.563 58.8707 183.275 59.244V65.5H181.483V59.5C181.483 59.1907 181.451 58.9773 181.387 58.86C181.333 58.7427 181.227 58.684 181.067 58.684C180.768 58.684 180.475 58.8707 180.187 59.244V65.5H177.995V57.004H179.835L180.011 57.82C180.288 57.436 180.56 57.1587 180.827 56.988C181.104 56.8067 181.424 56.716 181.786 56.716C182.117 56.716 182.395 56.8013 182.619 56.972C182.843 57.132 183.003 57.3827 183.099 57.724C183.675 57.052 184.299 56.716 184.971 56.716ZM194.564 56.716C195.172 56.716 195.615 56.9187 195.892 57.324C196.18 57.7187 196.324 58.348 196.324 59.212V65.5H194.164V59.5C194.164 59.1907 194.132 58.9773 194.068 58.86C194.015 58.7427 193.908 58.684 193.748 58.684C193.45 58.684 193.156 58.8707 192.868 59.244V65.5H191.076V59.5C191.076 59.1907 191.044 58.9773 190.98 58.86C190.927 58.7427 190.82 58.684 190.66 58.684C190.362 58.684 190.068 58.8707 189.78 59.244V65.5H187.588V57.004H189.428L189.604 57.82C189.882 57.436 190.154 57.1587 190.42 56.988C190.698 56.8067 191.018 56.716 191.38 56.716C191.711 56.716 191.988 56.8013 192.212 56.972C192.436 57.132 192.596 57.3827 192.692 57.724C193.268 57.052 193.892 56.716 194.564 56.716ZM201.534 52.556C201.971 52.556 202.329 52.6947 202.606 52.972C202.883 53.2387 203.022 53.5747 203.022 53.98C203.022 54.396 202.883 54.7373 202.606 55.004C202.329 55.2707 201.971 55.404 201.534 55.404C201.097 55.404 200.734 55.2707 200.446 55.004C200.169 54.7267 200.03 54.3853 200.03 53.98C200.03 53.5747 200.169 53.2387 200.446 52.972C200.734 52.6947 201.097 52.556 201.534 52.556ZM203.054 63.772H205.23V65.5H198.126V63.772H200.526V58.732H198.206V57.004H203.054V63.772ZM207.464 57.004H209.672L209.848 57.98C210.232 57.5533 210.632 57.2387 211.048 57.036C211.474 56.8227 211.954 56.716 212.488 56.716C213.224 56.716 213.794 56.94 214.2 57.388C214.616 57.836 214.824 58.46 214.824 59.26V65.5H212.296V59.996C212.296 59.4627 212.237 59.0947 212.12 58.892C212.002 58.6893 211.789 58.588 211.48 58.588C211.224 58.588 210.973 58.6733 210.728 58.844C210.493 59.004 210.248 59.244 209.992 59.564V65.5H207.464V57.004ZM225.186 57.5C224.631 57.724 223.815 57.836 222.738 57.836C223.292 58.0813 223.703 58.3747 223.97 58.716C224.247 59.0573 224.385 59.4947 224.385 60.028C224.385 60.572 224.236 61.0627 223.938 61.5C223.639 61.9267 223.218 62.2627 222.674 62.508C222.13 62.7533 221.5 62.876 220.786 62.876C220.434 62.876 220.103 62.844 219.794 62.78C219.708 62.8227 219.639 62.892 219.586 62.988C219.543 63.0733 219.522 63.164 219.522 63.26C219.522 63.42 219.58 63.548 219.698 63.644C219.826 63.7293 220.076 63.772 220.45 63.772H221.858C222.498 63.772 223.063 63.8787 223.554 64.092C224.044 64.3053 224.423 64.5987 224.69 64.972C224.956 65.3453 225.09 65.7667 225.09 66.236C225.09 67.1213 224.7 67.8093 223.922 68.3C223.154 68.8013 222.028 69.052 220.546 69.052C219.49 69.052 218.658 68.94 218.049 68.716C217.452 68.5027 217.031 68.1987 216.786 67.804C216.551 67.4093 216.434 66.9133 216.434 66.316H218.674C218.674 66.5827 218.722 66.7907 218.818 66.94C218.924 67.0893 219.116 67.2013 219.394 67.276C219.671 67.3507 220.076 67.388 220.61 67.388C221.356 67.388 221.868 67.3027 222.146 67.132C222.434 66.9613 222.578 66.7213 222.578 66.412C222.578 66.156 222.471 65.948 222.258 65.788C222.055 65.6387 221.751 65.564 221.346 65.564H220.002C219.127 65.564 218.471 65.4093 218.034 65.1C217.596 64.78 217.378 64.3747 217.378 63.884C217.378 63.564 217.458 63.2653 217.618 62.988C217.788 62.7 218.023 62.46 218.322 62.268C217.788 61.98 217.404 61.644 217.17 61.26C216.935 60.8653 216.818 60.3907 216.818 59.836C216.818 59.2067 216.978 58.6573 217.298 58.188C217.618 57.7187 218.066 57.3613 218.642 57.116C219.218 56.86 219.874 56.732 220.61 56.732C221.463 56.7533 222.188 56.6733 222.786 56.492C223.383 56.3 223.991 56.0173 224.61 55.644L225.186 57.5ZM220.674 58.38C220.268 58.38 219.948 58.508 219.714 58.764C219.49 59.02 219.378 59.3667 219.378 59.804C219.378 60.2627 219.495 60.62 219.73 60.876C219.964 61.132 220.279 61.26 220.674 61.26C221.09 61.26 221.41 61.1373 221.634 60.892C221.858 60.636 221.97 60.2627 221.97 59.772C221.97 58.844 221.538 58.38 220.674 58.38ZM121.488 73.412H124.112V82.42H128.912L128.656 84.5H121.488V73.412ZM137.866 82.052C137.866 82.3613 137.908 82.5907 137.994 82.74C138.079 82.8893 138.223 83.0013 138.426 83.076L137.898 84.74C137.386 84.6867 136.959 84.5747 136.618 84.404C136.276 84.2227 136.01 83.9613 135.818 83.62C135.498 83.9933 135.092 84.2813 134.602 84.484C134.111 84.676 133.588 84.772 133.034 84.772C132.159 84.772 131.46 84.5267 130.938 84.036C130.415 83.5347 130.154 82.8893 130.154 82.1C130.154 81.1827 130.516 80.4733 131.242 79.972C131.967 79.46 132.986 79.204 134.298 79.204H135.434V78.9C135.434 78.0253 134.874 77.588 133.754 77.588C133.466 77.588 133.103 77.6307 132.666 77.716C132.239 77.7907 131.823 77.8973 131.418 78.036L130.842 76.356C131.386 76.1533 131.951 75.9987 132.538 75.892C133.135 75.7747 133.674 75.716 134.154 75.716C136.628 75.716 137.866 76.7187 137.866 78.724V82.052ZM133.898 82.964C134.186 82.964 134.474 82.884 134.762 82.724C135.06 82.5533 135.284 82.324 135.434 82.036V80.644H134.81C133.444 80.644 132.762 81.0707 132.762 81.924C132.762 82.2547 132.858 82.5107 133.05 82.692C133.252 82.8733 133.535 82.964 133.898 82.964ZM140.308 76.004H142.516L142.692 76.98C143.076 76.5533 143.476 76.2387 143.891 76.036C144.318 75.8227 144.798 75.716 145.332 75.716C146.068 75.716 146.638 75.94 147.044 76.388C147.46 76.836 147.668 77.46 147.668 78.26V84.5H145.14V78.996C145.14 78.4627 145.081 78.0947 144.964 77.892C144.846 77.6893 144.633 77.588 144.324 77.588C144.068 77.588 143.817 77.6733 143.572 77.844C143.337 78.004 143.092 78.244 142.836 78.564V84.5H140.308V76.004ZM158.029 76.5C157.475 76.724 156.659 76.836 155.581 76.836C156.136 77.0813 156.547 77.3747 156.813 77.716C157.091 78.0573 157.229 78.4947 157.229 79.028C157.229 79.572 157.08 80.0627 156.781 80.5C156.483 80.9267 156.061 81.2627 155.517 81.508C154.973 81.7533 154.344 81.876 153.629 81.876C153.277 81.876 152.947 81.844 152.637 81.78C152.552 81.8227 152.483 81.892 152.429 81.988C152.387 82.0733 152.365 82.164 152.365 82.26C152.365 82.42 152.424 82.548 152.541 82.644C152.669 82.7293 152.92 82.772 153.293 82.772H154.701C155.341 82.772 155.907 82.8787 156.397 83.092C156.888 83.3053 157.267 83.5987 157.533 83.972C157.8 84.3453 157.933 84.7667 157.933 85.236C157.933 86.1213 157.544 86.8093 156.765 87.3C155.997 87.8013 154.872 88.052 153.389 88.052C152.333 88.052 151.501 87.94 150.893 87.716C150.296 87.5027 149.875 87.1987 149.629 86.804C149.395 86.4093 149.277 85.9133 149.277 85.316H151.517C151.517 85.5827 151.565 85.7907 151.661 85.94C151.768 86.0893 151.96 86.2013 152.237 86.276C152.515 86.3507 152.92 86.388 153.453 86.388C154.2 86.388 154.712 86.3027 154.989 86.132C155.277 85.9613 155.421 85.7213 155.421 85.412C155.421 85.156 155.315 84.948 155.101 84.788C154.899 84.6387 154.595 84.564 154.189 84.564H152.845C151.971 84.564 151.315 84.4093 150.877 84.1C150.44 83.78 150.221 83.3747 150.221 82.884C150.221 82.564 150.301 82.2653 150.461 81.988C150.632 81.7 150.867 81.46 151.165 81.268C150.632 80.98 150.248 80.644 150.013 80.26C149.779 79.8653 149.661 79.3907 149.661 78.836C149.661 78.2067 149.821 77.6573 150.141 77.188C150.461 76.7187 150.909 76.3613 151.485 76.116C152.061 75.86 152.717 75.732 153.453 75.732C154.307 75.7533 155.032 75.6733 155.629 75.492C156.227 75.3 156.835 75.0173 157.453 74.644L158.029 76.5ZM153.517 77.38C153.112 77.38 152.792 77.508 152.557 77.764C152.333 78.02 152.221 78.3667 152.221 78.804C152.221 79.2627 152.339 79.62 152.573 79.876C152.808 80.132 153.123 80.26 153.517 80.26C153.933 80.26 154.253 80.1373 154.477 79.892C154.701 79.636 154.813 79.2627 154.813 78.772C154.813 77.844 154.381 77.38 153.517 77.38ZM162.023 81.812C162.023 82.2067 162.092 82.4893 162.231 82.66C162.38 82.82 162.599 82.9 162.887 82.9C163.143 82.9 163.404 82.82 163.671 82.66C163.938 82.4893 164.156 82.26 164.327 81.972V76.004H166.855V84.5H164.647L164.535 83.508C164.258 83.9133 163.884 84.228 163.415 84.452C162.946 84.6653 162.45 84.772 161.927 84.772C161.127 84.772 160.519 84.5427 160.103 84.084C159.698 83.6147 159.495 82.964 159.495 82.132V76.004H162.023V81.812ZM176.241 82.052C176.241 82.3613 176.283 82.5907 176.369 82.74C176.454 82.8893 176.598 83.0013 176.801 83.076L176.273 84.74C175.761 84.6867 175.334 84.5747 174.993 84.404C174.651 84.2227 174.385 83.9613 174.193 83.62C173.873 83.9933 173.467 84.2813 172.977 84.484C172.486 84.676 171.963 84.772 171.409 84.772C170.534 84.772 169.835 84.5267 169.313 84.036C168.79 83.5347 168.529 82.8893 168.529 82.1C168.529 81.1827 168.891 80.4733 169.617 79.972C170.342 79.46 171.361 79.204 172.673 79.204H173.809V78.9C173.809 78.0253 173.249 77.588 172.129 77.588C171.841 77.588 171.478 77.6307 171.041 77.716C170.614 77.7907 170.198 77.8973 169.793 78.036L169.217 76.356C169.761 76.1533 170.326 75.9987 170.913 75.892C171.51 75.7747 172.049 75.716 172.529 75.716C175.003 75.716 176.241 76.7187 176.241 78.724V82.052ZM172.273 82.964C172.561 82.964 172.849 82.884 173.137 82.724C173.435 82.5533 173.659 82.324 173.809 82.036V80.644H173.185C171.819 80.644 171.137 81.0707 171.137 81.924C171.137 82.2547 171.233 82.5107 171.425 82.692C171.627 82.8733 171.91 82.964 172.273 82.964ZM186.811 76.5C186.256 76.724 185.44 76.836 184.363 76.836C184.917 77.0813 185.328 77.3747 185.595 77.716C185.872 78.0573 186.01 78.4947 186.01 79.028C186.01 79.572 185.861 80.0627 185.562 80.5C185.264 80.9267 184.843 81.2627 184.299 81.508C183.755 81.7533 183.125 81.876 182.411 81.876C182.059 81.876 181.728 81.844 181.419 81.78C181.333 81.8227 181.264 81.892 181.211 81.988C181.168 82.0733 181.147 82.164 181.147 82.26C181.147 82.42 181.205 82.548 181.323 82.644C181.451 82.7293 181.701 82.772 182.075 82.772H183.483C184.123 82.772 184.688 82.8787 185.179 83.092C185.669 83.3053 186.048 83.5987 186.315 83.972C186.581 84.3453 186.715 84.7667 186.715 85.236C186.715 86.1213 186.325 86.8093 185.547 87.3C184.779 87.8013 183.653 88.052 182.171 88.052C181.115 88.052 180.283 87.94 179.674 87.716C179.077 87.5027 178.656 87.1987 178.411 86.804C178.176 86.4093 178.059 85.9133 178.059 85.316H180.299C180.299 85.5827 180.347 85.7907 180.443 85.94C180.549 86.0893 180.741 86.2013 181.019 86.276C181.296 86.3507 181.701 86.388 182.235 86.388C182.981 86.388 183.493 86.3027 183.771 86.132C184.059 85.9613 184.203 85.7213 184.203 85.412C184.203 85.156 184.096 84.948 183.883 84.788C183.68 84.6387 183.376 84.564 182.971 84.564H181.627C180.752 84.564 180.096 84.4093 179.659 84.1C179.221 83.78 179.003 83.3747 179.003 82.884C179.003 82.564 179.083 82.2653 179.243 81.988C179.413 81.7 179.648 81.46 179.947 81.268C179.413 80.98 179.029 80.644 178.795 80.26C178.56 79.8653 178.443 79.3907 178.443 78.836C178.443 78.2067 178.603 77.6573 178.923 77.188C179.243 76.7187 179.691 76.3613 180.267 76.116C180.843 75.86 181.499 75.732 182.235 75.732C183.088 75.7533 183.813 75.6733 184.411 75.492C185.008 75.3 185.616 75.0173 186.235 74.644L186.811 76.5ZM182.299 77.38C181.893 77.38 181.573 77.508 181.339 77.764C181.115 78.02 181.003 78.3667 181.003 78.804C181.003 79.2627 181.12 79.62 181.355 79.876C181.589 80.132 181.904 80.26 182.299 80.26C182.715 80.26 183.035 80.1373 183.259 79.892C183.483 79.636 183.595 79.2627 183.595 78.772C183.595 77.844 183.163 77.38 182.299 77.38ZM190.468 80.996C190.628 82.2867 191.311 82.932 192.516 82.932C193.242 82.932 193.967 82.6973 194.692 82.228L195.7 83.604C195.284 83.9667 194.788 84.2547 194.212 84.468C193.636 84.6707 193.002 84.772 192.308 84.772C191.359 84.772 190.554 84.5853 189.892 84.212C189.231 83.828 188.73 83.3 188.388 82.628C188.058 81.9453 187.892 81.156 187.892 80.26C187.892 79.4067 188.052 78.6387 188.372 77.956C188.703 77.2627 189.178 76.7187 189.796 76.324C190.426 75.9187 191.172 75.716 192.036 75.716C192.847 75.716 193.551 75.892 194.148 76.244C194.746 76.5853 195.204 77.0867 195.524 77.748C195.855 78.3987 196.02 79.1773 196.02 80.084C196.02 80.436 196.004 80.74 195.972 80.996H190.468ZM192.036 77.412C191.578 77.412 191.21 77.5827 190.932 77.924C190.655 78.2547 190.49 78.7667 190.436 79.46H193.556C193.535 78.0947 193.028 77.412 192.036 77.412Z" fill="black"/>
</svg>
